<mxfile host="app.diagrams.net" modified="2023-12-10T09:49:41.463Z" agent="Mozilla/5.0 (X11; Linux x86_64) AppleWebKit/537.36 (KHTML, like Gecko) Chrome/120.0.0.0 Safari/537.36" version="22.1.7" etag="qpsbv5exdPs_qeeR0_Zy" type="github">
  <diagram name="Page-1" id="_3Kexro8jyEhFh9ByhMr">
    <mxGraphModel>
      <root>
        <mxCell id="0" />
        <mxCell id="1" parent="0" />
      </root>
    </mxGraphModel>
  </diagram>
</mxfile>
